<svg width="800" height="600" viewBox="0 0 800 600" fill="none" xmlns="http://www.w3.org/2000/svg">
  <!-- Background -->
  <rect width="800" height="600" rx="16" fill="#F8FAFC"/>
  
  <!-- App Window -->
  <rect x="40" y="40" width="720" height="520" rx="12" fill="white" stroke="#E2E8F0" stroke-width="2"/>
  
  <!-- App Header -->
  <rect x="40" y="40" width="720" height="48" rx="12" fill="#2563EB"/>
  <circle cx="72" cy="64" r="8" fill="#F87171"/>
  <circle cx="100" cy="64" r="8" fill="#FBBF24"/>
  <circle cx="128" cy="64" r="8" fill="#4ADE80"/>
  
  <!-- Sidebar -->
  <rect x="40" y="88" width="180" height="472" fill="#F1F5F9"/>
  
  <!-- Sidebar Items -->
  <rect x="56" y="120" width="148" height="36" rx="6" fill="#E0F2FE"/>
  <rect x="68" y="132" width="16" height="16" rx="2" fill="#2563EB"/>
  <rect x="92" y="132" width="80" height="12" rx="2" fill="#2563EB" fill-opacity="0.7"/>
  
  <rect x="56" y="164" width="148" height="36" rx="6" fill="white"/>
  <rect x="68" y="176" width="16" height="16" rx="2" fill="#64748B"/>
  <rect x="92" y="176" width="70" height="12" rx="2" fill="#64748B" fill-opacity="0.7"/>
  
  <rect x="56" y="208" width="148" height="36" rx="6" fill="white"/>
  <rect x="68" y="220" width="16" height="16" rx="2" fill="#64748B"/>
  <rect x="92" y="220" width="60" height="12" rx="2" fill="#64748B" fill-opacity="0.7"/>
  
  <rect x="56" y="252" width="148" height="36" rx="6" fill="white"/>
  <rect x="68" y="264" width="16" height="16" rx="2" fill="#64748B"/>
  <rect x="92" y="264" width="90" height="12" rx="2" fill="#64748B" fill-opacity="0.7"/>
  
  <!-- Main Content - 3D View -->
  <rect x="240" y="108" width="500" height="350" rx="8" fill="#F1F5F9"/>
  
  <!-- Grid -->
  <line x1="240" y1="258" x2="740" y2="258" stroke="#CBD5E1" stroke-width="1" stroke-dasharray="4 4"/>
  <line x1="240" y1="308" x2="740" y2="308" stroke="#CBD5E1" stroke-width="1" stroke-dasharray="4 4"/>
  <line x1="240" y1="358" x2="740" y2="358" stroke="#CBD5E1" stroke-width="1" stroke-dasharray="4 4"/>
  <line x1="490" y1="108" x2="490" y2="458" stroke="#CBD5E1" stroke-width="1" stroke-dasharray="4 4"/>
  <line x1="390" y1="108" x2="390" y2="458" stroke="#CBD5E1" stroke-width="1" stroke-dasharray="4 4"/>
  <line x1="590" y1="108" x2="590" y2="458" stroke="#CBD5E1" stroke-width="1" stroke-dasharray="4 4"/>
  
  <!-- 3D Element - Column -->
  <rect x="380" y="198" width="20" height="160" fill="#2563EB" fill-opacity="0.2" stroke="#2563EB" stroke-width="2"/>
  <rect x="380" y="198" width="20" height="20" fill="#2563EB" fill-opacity="0.3" stroke="#2563EB" stroke-width="2"/>
  <rect x="380" y="338" width="20" height="20" fill="#2563EB" fill-opacity="0.3" stroke="#2563EB" stroke-width="2"/>
  
  <!-- 3D Element - Beam -->
  <rect x="320" y="198" width="140" height="20" fill="#4ADE80" fill-opacity="0.2" stroke="#4ADE80" stroke-width="2"/>
  <rect x="320" y="198" width="20" height="20" fill="#4ADE80" fill-opacity="0.3" stroke="#4ADE80" stroke-width="2"/>
  <rect x="440" y="198" width="20" height="20" fill="#4ADE80" fill-opacity="0.3" stroke="#4ADE80" stroke-width="2"/>
  
  <!-- 3D Element - Column 2 -->
  <rect x="440" y="198" width="20" height="160" fill="#2563EB" fill-opacity="0.2" stroke="#2563EB" stroke-width="2"/>
  <rect x="440" y="338" width="20" height="20" fill="#2563EB" fill-opacity="0.3" stroke="#2563EB" stroke-width="2"/>
  
  <!-- 3D Element - Support -->
  <rect x="370" y="358" width="40" height="10" fill="#FB923C" fill-opacity="0.3" stroke="#FB923C" stroke-width="2"/>
  <rect x="430" y="358" width="40" height="10" fill="#FB923C" fill-opacity="0.3" stroke="#FB923C" stroke-width="2"/>
  
  <!-- 3D Element - Foundation -->
  <rect x="320" y="368" width="200" height="20" fill="#64748B" fill-opacity="0.2" stroke="#64748B" stroke-width="2"/>
  <rect x="320" y="368" width="200" height="5" fill="#64748B" fill-opacity="0.4" stroke="#64748B" stroke-width="1"/>
  
  <!-- 3D Element - Connection -->
  <circle cx="440" cy="198" r="6" fill="#F43F5E" stroke="#F43F5E" stroke-width="1.5"/>
  <circle cx="380" cy="198" r="6" fill="#F43F5E" stroke="#F43F5E" stroke-width="1.5"/>
  
  <!-- Property Panel -->
  <rect x="240" y="468" width="500" height="72" rx="8" fill="white" stroke="#E2E8F0" stroke-width="1"/>
  <rect x="256" y="484" width="120" height="12" rx="2" fill="#64748B" fill-opacity="0.2"/>
  <rect x="256" y="508" width="180" height="12" rx="2" fill="#64748B" fill-opacity="0.2"/>
  <rect x="454" y="484" width="100" height="12" rx="2" fill="#64748B" fill-opacity="0.2"/>
  <rect x="454" y="508" width="140" height="12" rx="2" fill="#64748B" fill-opacity="0.2"/>
  <rect x="616" y="488" width="108" height="32" rx="6" fill="#2563EB"/>
  <rect x="648" y="498" width="52" height="12" rx="2" fill="white" fill-opacity="0.9"/>
  
  <!-- Icons at Bottom -->
  <circle cx="56" cy="520" r="8" fill="#64748B" fill-opacity="0.2"/>
  <circle cx="80" cy="520" r="8" fill="#64748B" fill-opacity="0.2"/>
  <circle cx="104" cy="520" r="8" fill="#64748B" fill-opacity="0.2"/>
  <circle cx="128" cy="520" r="8" fill="#64748B" fill-opacity="0.2"/>
  <circle cx="152" cy="520" r="8" fill="#64748B" fill-opacity="0.2"/>
</svg> 