<svg xmlns="http://www.w3.org/2000/svg" width="140" height="40" viewBox="0 0 180 40">
  <style>
    .logo-text { font-family: 'Roboto', sans-serif; font-weight: 400; letter-spacing: 0.5px; }
    .primary { fill: #3b82f6; }
    .accent { fill: #f97316; }
    .mesh-line { stroke: #3b82f6; stroke-width: 0.6; }
    .mesh-line-accent { stroke: #f97316; stroke-width: 0.6; }
    .mesh-point { fill: #3b82f6; r: 0.8; }
    .mesh-point-accent { fill: #f97316; r: 1; }
    .e-connector { stroke: #3b82f6; stroke-width: 0.6; stroke-dasharray: 2,1; }
  </style>
  
  <!-- Logo text with mesh elements -->
  <g id="modsee-text">
    <!-- M with mesh - more minimal -->
    <path class="primary" d="M15,33 V7 h4 l11,16 l11-16 h4 V33 h-4 V14 l-11,16 l-11-16 V33 z" fill-opacity="0.08"/>
    
    <!-- M mesh lines - more elegant and thin -->
    <line class="mesh-line" x1="15" y1="7" x2="45" y2="7" />
    <line class="mesh-line" x1="15" y1="20" x2="45" y2="20" />
    <line class="mesh-line" x1="15" y1="33" x2="45" y2="33" />
    <line class="mesh-line" x1="19" y1="7" x2="19" y2="33" />
    <line class="mesh-line" x1="30" y1="7" x2="30" y2="33" />
    <line class="mesh-line" x1="41" y1="7" x2="41" y2="33" />
    <line class="mesh-line-accent" x1="19" y1="7" x2="30" y2="23" />
    <line class="mesh-line-accent" x1="30" y1="23" x2="41" y2="7" />
    
    <!-- M mesh points - smaller and more minimal -->
    <circle class="mesh-point" cx="15" cy="7" />
    <circle class="mesh-point" cx="15" cy="20" />
    <circle class="mesh-point" cx="15" cy="33" />
    <circle class="mesh-point" cx="19" cy="7" />
    <circle class="mesh-point" cx="19" cy="33" />
    <circle class="mesh-point" cx="30" cy="7" />
    <circle class="mesh-point-accent" cx="30" cy="23" />
    <circle class="mesh-point" cx="30" cy="33" />
    <circle class="mesh-point" cx="41" cy="7" />
    <circle class="mesh-point" cx="41" cy="33" />
    <circle class="mesh-point" cx="45" cy="7" />
    <circle class="mesh-point" cx="45" cy="20" />
    <circle class="mesh-point" cx="45" cy="33" />
    
    <!-- M outline - thinner and more refined -->
    <path class="primary" d="M15,33 V7 h4 l11,16 l11-16 h4 V33 h-4 V14 l-11,16 l-11-16 V33 z" fill="none" stroke="#3b82f6" stroke-width="1.2"/>
    
    <!-- "od" text -->
    <text class="logo-text primary" x="50" y="33" font-size="45">od</text>
    
    <!-- First "e" with mesh structure -->
    <g transform="translate(108, 10)">
      <!-- Basic e shape with light fill -->
      <path class="primary" d="M0,12 Q0,18 5,22 Q10,26 15,23 Q20,20 20,14 L0,14 Q0,8 5,5 Q10,2 15,5 L20,5" fill="none" stroke="#3b82f6" stroke-width="1.2" />
      
      <!-- Mesh points for first e -->
      <circle class="mesh-point" cx="0" cy="12" />
      <circle class="mesh-point" cx="0" cy="14" />
      <circle class="mesh-point" cx="5" cy="5" />
      <circle class="mesh-point" cx="5" cy="22" />
      <circle class="mesh-point" cx="10" cy="2" />
      <circle class="mesh-point" cx="10" cy="26" />
      <circle class="mesh-point-accent" cx="15" cy="5" />
      <circle class="mesh-point" cx="15" cy="23" />
      <circle class="mesh-point" cx="20" cy="5" />
      <circle class="mesh-point" cx="20" cy="14" />
      
      <!-- Mesh grid for first e -->
      <line class="mesh-line" x1="0" y1="12" x2="0" y2="14" />
      <line class="mesh-line" x1="5" y1="5" x2="5" y2="22" />
      <line class="mesh-line" x1="10" y1="2" x2="10" y2="26" />
      <line class="mesh-line" x1="15" y1="5" x2="15" y2="23" />
      <line class="mesh-line" x1="20" y1="5" x2="20" y2="14" />
      
      <line class="mesh-line" x1="0" y1="12" x2="5" y2="5" />
      <line class="mesh-line" x1="5" y1="5" x2="10" y2="2" />
      <line class="mesh-line" x1="10" y1="2" x2="15" y2="5" />
      <line class="mesh-line" x1="15" y1="5" x2="20" y2="5" />
      
      <line class="mesh-line" x1="0" y1="14" x2="20" y2="14" />
      
      <line class="mesh-line" x1="0" y1="14" x2="5" y2="22" />
      <line class="mesh-line" x1="5" y1="22" x2="10" y2="26" />
      <line class="mesh-line" x1="10" y1="26" x2="15" y2="23" />
      <line class="mesh-line-accent" x1="15" y1="23" x2="20" y2="14" />
    </g>
    
    <!-- Second "e" with mesh structure -->
    <g transform="translate(130, 10)">
      <!-- Basic e shape with light fill -->
      <path class="primary" d="M0,12 Q0,18 5,22 Q10,26 15,23 Q20,20 20,14 L0,14 Q0,8 5,5 Q10,2 15,5 L20,5" fill="none" stroke="#3b82f6" stroke-width="1.2" />
      
      <!-- Mesh points for second e -->
      <circle class="mesh-point" cx="0" cy="12" />
      <circle class="mesh-point" cx="0" cy="14" />
      <circle class="mesh-point" cx="5" cy="5" />
      <circle class="mesh-point" cx="5" cy="22" />
      <circle class="mesh-point" cx="10" cy="2" />
      <circle class="mesh-point" cx="10" cy="26" />
      <circle class="mesh-point" cx="15" cy="5" />
      <circle class="mesh-point-accent" cx="15" cy="23" />
      <circle class="mesh-point" cx="20" cy="5" />
      <circle class="mesh-point" cx="20" cy="14" />
      
      <!-- Mesh grid for second e -->
      <line class="mesh-line" x1="0" y1="12" x2="0" y2="14" />
      <line class="mesh-line" x1="5" y1="5" x2="5" y2="22" />
      <line class="mesh-line" x1="10" y1="2" x2="10" y2="26" />
      <line class="mesh-line" x1="15" y1="5" x2="15" y2="23" />
      <line class="mesh-line" x1="20" y1="5" x2="20" y2="14" />
      
      <line class="mesh-line" x1="0" y1="12" x2="5" y2="5" />
      <line class="mesh-line" x1="5" y1="5" x2="10" y2="2" />
      <line class="mesh-line" x1="10" y1="2" x2="15" y2="5" />
      <line class="mesh-line" x1="15" y1="5" x2="20" y2="5" />
      
      <line class="mesh-line" x1="0" y1="14" x2="20" y2="14" />
      
      <line class="mesh-line" x1="0" y1="14" x2="5" y2="22" />
      <line class="mesh-line" x1="5" y1="22" x2="10" y2="26" />
      <line class="mesh-line" x1="10" y1="26" x2="15" y2="23" />
      <line class="mesh-line-accent" x1="15" y1="23" x2="20" y2="14" />
    </g>
    
    <!-- Connection between the two 'e's -->
    <line class="e-connector" x1="128" y1="12" x2="130" y2="12" />
    <line class="e-connector" x1="128" y1="22" x2="130" y2="22" />
    <line class="mesh-line-accent" x1="123" y1="15" x2="135" y2="15" />
    <line class="mesh-line-accent" x1="123" y1="33" x2="135" y2="33" />
    <circle class="mesh-point-accent" cx="123" cy="15" />
    <circle class="mesh-point-accent" cx="135" cy="15" />
    
    <!-- "s" text -->
    <text class="logo-text primary" x="152" y="33" font-size="45">s</text>
  </g>
</svg> 