<svg xmlns="http://www.w3.org/2000/svg" width="120" height="40" viewBox="0 0 120 40">
  <style>
    .logo-text { font-family: 'Arial', sans-serif; font-weight: bold; }
    .primary { fill: #2563eb; }
    .secondary { fill: #f59e0b; }
  </style>
  
  <!-- M letter -->
  <path class="primary" d="M10,35 L10,5 L15,5 L20,15 L25,5 L30,5 L30,35 L25,35 L25,15 L20,25 L15,15 L15,35 Z" />
  
  <!-- Structure grid icon -->
  <g transform="translate(35, 10)">
    <rect class="primary" x="0" y="0" width="20" height="20" rx="2" fill-opacity="0.2" />
    <circle class="primary" cx="5" cy="5" r="2.5" />
    <circle class="secondary" cx="15" cy="5" r="2.5" />
    <circle class="secondary" cx="5" cy="15" r="2.5" />
    <circle class="primary" cx="15" cy="15" r="2.5" />
    <line x1="5" y1="5" x2="15" y2="5" stroke="#2563eb" stroke-width="1.5" />
    <line x1="15" y1="5" x2="15" y2="15" stroke="#2563eb" stroke-width="1.5" />
    <line x1="15" y1="15" x2="5" y2="15" stroke="#2563eb" stroke-width="1.5" />
    <line x1="5" y1="15" x2="5" y2="5" stroke="#2563eb" stroke-width="1.5" />
    <line x1="5" y1="5" x2="15" y2="15" stroke="#2563eb" stroke-width="1.5" />
  </g>
  
  <!-- Text -->
  <text class="logo-text primary" x="65" y="27" font-size="18">odsee</text>
</svg> 